<svg width="671" height="314" viewBox="0 0 671 314" fill="none" xmlns="http://www.w3.org/2000/svg">
<rect width="671" height="314" fill="#D31216"/>
<g filter="url(#filter0_d)">
<path d="M263.475 30.1785L199.254 88.1795L183.191 62.4744L263.475 30.1785Z" fill="#F5F1F1"/>
</g>
<g filter="url(#filter1_d)">
<path d="M135.202 291.839L191.569 225.15L210.971 248.437L135.202 291.839Z" fill="white"/>
</g>
<g filter="url(#filter2_d)">
<path d="M178 163.4H195H212L195 122.5L178 163.4Z" fill="url(#paint0_linear)"/>
</g>
<g filter="url(#filter3_d)">
<path d="M195 58L101.9 91.2L116.1 214.3L195 258L273.9 214.3L288.1 91.2L195 58ZM253.1 210.6H231.4L219.7 181.4H195H170.3L158.6 210.6H136.9L195 80.1L253.1 210.6Z" fill="url(#paint1_linear)"/>
</g>
<path d="M312.254 135H302.656V97.3477H304.977L308.141 101.004C309.688 99.5977 311.434 98.5195 313.379 97.7695C315.348 96.9961 317.398 96.6094 319.531 96.6094C321.828 96.6094 323.996 97.0547 326.035 97.9453C328.074 98.8125 329.855 100.02 331.379 101.566C332.902 103.09 334.098 104.883 334.965 106.945C335.855 108.984 336.301 111.164 336.301 113.484V135H326.703V113.484C326.703 112.5 326.516 111.574 326.141 110.707C325.766 109.816 325.25 109.043 324.594 108.387C323.938 107.73 323.176 107.215 322.309 106.84C321.441 106.465 320.516 106.277 319.531 106.277C318.523 106.277 317.574 106.465 316.684 106.84C315.793 107.215 315.02 107.73 314.363 108.387C313.707 109.043 313.191 109.816 312.816 110.707C312.441 111.574 312.254 112.5 312.254 113.484V135ZM369.945 115.84C369.945 114.527 369.688 113.262 369.172 112.043C368.68 110.801 368 109.711 367.133 108.773C366.266 107.812 365.246 107.051 364.074 106.488C362.926 105.902 361.695 105.609 360.383 105.609C359.07 105.609 357.828 105.832 356.656 106.277C355.508 106.723 354.5 107.379 353.633 108.246C352.789 109.113 352.121 110.191 351.629 111.48C351.137 112.746 350.891 114.199 350.891 115.84C350.891 117.41 351.137 118.828 351.629 120.094C352.121 121.336 352.789 122.402 353.633 123.293C354.5 124.184 355.508 124.875 356.656 125.367C357.828 125.836 359.07 126.07 360.383 126.07C361.695 126.07 362.926 125.789 364.074 125.227C365.246 124.641 366.266 123.879 367.133 122.941C368 121.98 368.68 120.891 369.172 119.672C369.688 118.43 369.945 117.152 369.945 115.84ZM379.613 130.254C379.613 132.902 379.109 135.387 378.102 137.707C377.094 140.027 375.711 142.055 373.953 143.789C372.219 145.523 370.18 146.895 367.836 147.902C365.516 148.91 363.031 149.414 360.383 149.414L355.566 149.344V139.746L360.312 139.816C361.812 139.816 363.09 139.617 364.145 139.219C365.199 138.844 366.09 138.316 366.816 137.637C367.543 136.98 368.117 136.219 368.539 135.352C368.984 134.484 369.336 133.57 369.594 132.609C369.219 133.219 368.68 133.723 367.977 134.121C367.273 134.496 366.488 134.801 365.621 135.035C364.777 135.293 363.887 135.469 362.949 135.562C362.035 135.656 361.18 135.703 360.383 135.703C357.734 135.703 355.238 135.246 352.895 134.332C350.574 133.418 348.535 132.117 346.777 130.43C345.043 128.719 343.672 126.633 342.664 124.172C341.656 121.711 341.152 118.934 341.152 115.84C341.152 113.004 341.656 110.367 342.664 107.93C343.672 105.492 345.043 103.383 346.777 101.602C348.535 99.8203 350.574 98.4258 352.895 97.418C355.238 96.4102 357.734 95.9062 360.383 95.9062C361.602 95.9062 362.809 96.0586 364.004 96.3633C365.199 96.668 366.359 97.0898 367.484 97.6289C368.609 98.168 369.676 98.8008 370.684 99.5273C371.715 100.254 372.676 101.039 373.566 101.883L377.293 97.418H379.613V130.254ZM414.629 130.605C413.855 131.309 413.023 131.977 412.133 132.609C411.266 133.219 410.352 133.758 409.391 134.227C408.43 134.672 407.434 135.023 406.402 135.281C405.395 135.562 404.363 135.703 403.309 135.703C400.988 135.703 398.809 135.293 396.77 134.473C394.73 133.652 392.938 132.492 391.391 130.992C389.867 129.469 388.66 127.629 387.77 125.473C386.902 123.293 386.469 120.855 386.469 118.16V97.3477H396.031V118.16C396.031 119.426 396.219 120.562 396.594 121.57C396.992 122.555 397.52 123.387 398.176 124.066C398.832 124.746 399.594 125.262 400.461 125.613C401.352 125.965 402.301 126.141 403.309 126.141C404.293 126.141 405.219 125.918 406.086 125.473C406.977 125.004 407.75 124.395 408.406 123.645C409.062 122.895 409.578 122.051 409.953 121.113C410.328 120.152 410.516 119.168 410.516 118.16V97.3477H420.113V135H417.793L414.629 130.605ZM437.129 135H427.461V82.3711H437.129V135ZM480.934 135H478.613L474.887 129.832C473.973 130.652 473 131.426 471.969 132.152C470.961 132.855 469.895 133.477 468.77 134.016C467.645 134.531 466.484 134.941 465.289 135.246C464.117 135.551 462.922 135.703 461.703 135.703C459.055 135.703 456.559 135.258 454.215 134.367C451.895 133.477 449.855 132.188 448.098 130.5C446.363 128.789 444.992 126.703 443.984 124.242C442.977 121.781 442.473 118.98 442.473 115.84C442.473 112.91 442.977 110.227 443.984 107.789C444.992 105.328 446.363 103.219 448.098 101.461C449.855 99.7031 451.895 98.3438 454.215 97.3828C456.559 96.3984 459.055 95.9062 461.703 95.9062C462.922 95.9062 464.129 96.0586 465.324 96.3633C466.52 96.668 467.68 97.0898 468.805 97.6289C469.93 98.168 470.996 98.8008 472.004 99.5273C473.035 100.254 473.996 101.039 474.887 101.883L478.613 97.418H480.934V135ZM471.266 115.84C471.266 114.527 471.008 113.262 470.492 112.043C470 110.801 469.32 109.711 468.453 108.773C467.586 107.812 466.566 107.051 465.395 106.488C464.246 105.902 463.016 105.609 461.703 105.609C460.391 105.609 459.148 105.832 457.977 106.277C456.828 106.723 455.82 107.379 454.953 108.246C454.109 109.113 453.441 110.191 452.949 111.48C452.457 112.746 452.211 114.199 452.211 115.84C452.211 117.48 452.457 118.945 452.949 120.234C453.441 121.5 454.109 122.566 454.953 123.434C455.82 124.301 456.828 124.957 457.977 125.402C459.148 125.848 460.391 126.07 461.703 126.07C463.016 126.07 464.246 125.789 465.395 125.227C466.566 124.641 467.586 123.879 468.453 122.941C469.32 121.98 470 120.891 470.492 119.672C471.008 118.43 471.266 117.152 471.266 115.84ZM497.879 135H488.281V97.3477H490.602L493.766 101.812C495.312 100.406 497.07 99.3281 499.039 98.5781C501.008 97.8047 503.047 97.418 505.156 97.418H513.629V106.98H505.156C504.148 106.98 503.199 107.168 502.309 107.543C501.418 107.918 500.645 108.434 499.988 109.09C499.332 109.746 498.816 110.52 498.441 111.41C498.066 112.301 497.879 113.25 497.879 114.258V135Z" fill="white"/>
<path d="M350.188 191.395C350.188 193.363 349.812 195.227 349.062 196.984C348.312 198.719 347.281 200.23 345.969 201.52C344.68 202.809 343.156 203.828 341.398 204.578C339.664 205.328 337.801 205.703 335.809 205.703C334.027 205.703 332.316 205.398 330.676 204.789C329.035 204.156 327.547 203.242 326.211 202.047C324.898 203.242 323.422 204.156 321.781 204.789C320.164 205.398 318.453 205.703 316.648 205.703C314.656 205.703 312.793 205.328 311.059 204.578C309.324 203.828 307.801 202.809 306.488 201.52C305.199 200.23 304.18 198.719 303.43 196.984C302.68 195.227 302.305 193.363 302.305 191.395V167.418H311.902V191.395C311.902 192.051 312.02 192.672 312.254 193.258C312.512 193.82 312.852 194.324 313.273 194.77C313.719 195.191 314.223 195.531 314.785 195.789C315.371 196.023 315.992 196.141 316.648 196.141C317.305 196.141 317.926 196.023 318.512 195.789C319.098 195.531 319.613 195.191 320.059 194.77C320.504 194.324 320.844 193.82 321.078 193.258C321.336 192.672 321.465 192.051 321.465 191.395V167.418H331.027V191.395C331.027 192.051 331.156 192.672 331.414 193.258C331.672 193.82 332.012 194.324 332.434 194.77C332.879 195.191 333.383 195.531 333.945 195.789C334.531 196.023 335.152 196.141 335.809 196.141C336.465 196.141 337.086 196.023 337.672 195.789C338.258 195.531 338.762 195.191 339.184 194.77C339.629 194.324 339.98 193.82 340.238 193.258C340.496 192.672 340.625 192.051 340.625 191.395V167.418H350.188V191.395ZM372.125 195.789C372.5 195.906 372.875 195.988 373.25 196.035C373.625 196.059 374 196.07 374.375 196.07C375.312 196.07 376.215 195.941 377.082 195.684C377.949 195.426 378.758 195.062 379.508 194.594C380.281 194.102 380.961 193.516 381.547 192.836C382.156 192.133 382.648 191.359 383.023 190.516L390.055 197.582C389.164 198.848 388.133 199.984 386.961 200.992C385.812 202 384.559 202.855 383.199 203.559C381.863 204.262 380.445 204.789 378.945 205.141C377.469 205.516 375.945 205.703 374.375 205.703C371.727 205.703 369.23 205.211 366.887 204.227C364.566 203.242 362.527 201.871 360.77 200.113C359.035 198.355 357.664 196.27 356.656 193.855C355.648 191.418 355.145 188.746 355.145 185.84C355.145 182.863 355.648 180.145 356.656 177.684C357.664 175.223 359.035 173.125 360.77 171.391C362.527 169.656 364.566 168.309 366.887 167.348C369.23 166.387 371.727 165.906 374.375 165.906C375.945 165.906 377.48 166.094 378.98 166.469C380.48 166.844 381.898 167.383 383.234 168.086C384.594 168.789 385.859 169.656 387.031 170.688C388.203 171.695 389.234 172.832 390.125 174.098L372.125 195.789ZM377.047 175.996C376.602 175.832 376.156 175.727 375.711 175.68C375.289 175.633 374.844 175.609 374.375 175.609C373.062 175.609 371.82 175.855 370.648 176.348C369.5 176.816 368.492 177.496 367.625 178.387C366.781 179.277 366.113 180.355 365.621 181.621C365.129 182.863 364.883 184.27 364.883 185.84C364.883 186.191 364.895 186.59 364.918 187.035C364.965 187.48 365.023 187.938 365.094 188.406C365.188 188.852 365.293 189.285 365.41 189.707C365.527 190.129 365.68 190.504 365.867 190.832L377.047 175.996ZM415.648 205H393.711V195.438H415.648C416.305 195.438 416.867 195.203 417.336 194.734C417.805 194.266 418.039 193.703 418.039 193.047C418.039 192.367 417.805 191.922 417.336 191.711C416.867 191.5 416.305 191.395 415.648 191.395H405.664C404 191.395 402.441 191.078 400.988 190.445C399.535 189.812 398.27 188.957 397.191 187.879C396.113 186.777 395.258 185.5 394.625 184.047C394.016 182.594 393.711 181.035 393.711 179.371C393.711 177.707 394.016 176.148 394.625 174.695C395.258 173.242 396.113 171.977 397.191 170.898C398.27 169.82 399.535 168.977 400.988 168.367C402.441 167.734 404 167.418 405.664 167.418H425.105V176.98H405.664C405.008 176.98 404.445 177.215 403.977 177.684C403.508 178.152 403.273 178.715 403.273 179.371C403.273 180.051 403.508 180.637 403.977 181.129C404.445 181.598 405.008 181.832 405.664 181.832H415.648C417.289 181.832 418.836 182.113 420.289 182.676C421.742 183.215 423.008 183.977 424.086 184.961C425.164 185.945 426.02 187.129 426.652 188.512C427.285 189.895 427.602 191.406 427.602 193.047C427.602 194.711 427.285 196.27 426.652 197.723C426.02 199.152 425.164 200.418 424.086 201.52C423.008 202.598 421.742 203.453 420.289 204.086C418.836 204.695 417.289 205 415.648 205ZM469.121 185.84C469.121 188.652 468.617 191.277 467.609 193.715C466.602 196.129 465.23 198.227 463.496 200.008C461.762 201.766 459.723 203.16 457.379 204.191C455.059 205.199 452.562 205.703 449.891 205.703C447.242 205.703 444.746 205.199 442.402 204.191C440.082 203.16 438.043 201.766 436.285 200.008C434.551 198.227 433.18 196.129 432.172 193.715C431.164 191.277 430.66 188.652 430.66 185.84C430.66 182.98 431.164 180.332 432.172 177.895C433.18 175.457 434.551 173.359 436.285 171.602C438.043 169.82 440.082 168.426 442.402 167.418C444.746 166.41 447.242 165.906 449.891 165.906C452.562 165.906 455.059 166.387 457.379 167.348C459.723 168.285 461.762 169.633 463.496 171.391C465.23 173.125 466.602 175.223 467.609 177.684C468.617 180.121 469.121 182.84 469.121 185.84ZM459.453 185.84C459.453 184.293 459.195 182.898 458.68 181.656C458.188 180.391 457.508 179.312 456.641 178.422C455.773 177.508 454.754 176.816 453.582 176.348C452.434 175.855 451.203 175.609 449.891 175.609C448.578 175.609 447.336 175.855 446.164 176.348C445.016 176.816 444.008 177.508 443.141 178.422C442.297 179.312 441.629 180.391 441.137 181.656C440.645 182.898 440.398 184.293 440.398 185.84C440.398 187.293 440.645 188.641 441.137 189.883C441.629 191.125 442.297 192.203 443.141 193.117C444.008 194.031 445.016 194.758 446.164 195.297C447.336 195.812 448.578 196.07 449.891 196.07C451.203 196.07 452.434 195.824 453.582 195.332C454.754 194.84 455.773 194.148 456.641 193.258C457.508 192.367 458.188 191.289 458.68 190.023C459.195 188.758 459.453 187.363 459.453 185.84ZM522.312 205H512.75V181.094C512.75 180.438 512.621 179.816 512.363 179.23C512.129 178.645 511.789 178.129 511.344 177.684C510.898 177.238 510.383 176.898 509.797 176.664C509.211 176.406 508.59 176.277 507.934 176.277C507.277 176.277 506.656 176.406 506.07 176.664C505.508 176.898 505.004 177.238 504.559 177.684C504.137 178.129 503.797 178.645 503.539 179.23C503.305 179.816 503.188 180.438 503.188 181.094V205H493.59V181.094C493.59 180.438 493.461 179.816 493.203 179.23C492.969 178.645 492.629 178.129 492.184 177.684C491.738 177.238 491.223 176.898 490.637 176.664C490.051 176.406 489.43 176.277 488.773 176.277C488.117 176.277 487.496 176.406 486.91 176.664C486.348 176.898 485.844 177.238 485.398 177.684C484.977 178.129 484.637 178.645 484.379 179.23C484.145 179.816 484.027 180.438 484.027 181.094V205H474.43V167.348H476.75L479.352 170.23C480.688 169.105 482.152 168.238 483.746 167.629C485.363 166.996 487.039 166.68 488.773 166.68C490.531 166.68 492.242 167.008 493.906 167.664C495.594 168.32 497.07 169.457 498.336 171.074C498.922 170.277 499.59 169.598 500.34 169.035C501.09 168.473 501.875 168.016 502.695 167.664C503.539 167.312 504.406 167.066 505.297 166.926C506.188 166.762 507.066 166.68 507.934 166.68C509.926 166.68 511.789 167.055 513.523 167.805C515.281 168.555 516.805 169.586 518.094 170.898C519.406 172.188 520.438 173.711 521.188 175.469C521.938 177.227 522.312 179.102 522.312 181.094V205ZM544.32 195.789C544.695 195.906 545.07 195.988 545.445 196.035C545.82 196.059 546.195 196.07 546.57 196.07C547.508 196.07 548.41 195.941 549.277 195.684C550.145 195.426 550.953 195.062 551.703 194.594C552.477 194.102 553.156 193.516 553.742 192.836C554.352 192.133 554.844 191.359 555.219 190.516L562.25 197.582C561.359 198.848 560.328 199.984 559.156 200.992C558.008 202 556.754 202.855 555.395 203.559C554.059 204.262 552.641 204.789 551.141 205.141C549.664 205.516 548.141 205.703 546.57 205.703C543.922 205.703 541.426 205.211 539.082 204.227C536.762 203.242 534.723 201.871 532.965 200.113C531.23 198.355 529.859 196.27 528.852 193.855C527.844 191.418 527.34 188.746 527.34 185.84C527.34 182.863 527.844 180.145 528.852 177.684C529.859 175.223 531.23 173.125 532.965 171.391C534.723 169.656 536.762 168.309 539.082 167.348C541.426 166.387 543.922 165.906 546.57 165.906C548.141 165.906 549.676 166.094 551.176 166.469C552.676 166.844 554.094 167.383 555.43 168.086C556.789 168.789 558.055 169.656 559.227 170.688C560.398 171.695 561.43 172.832 562.32 174.098L544.32 195.789ZM549.242 175.996C548.797 175.832 548.352 175.727 547.906 175.68C547.484 175.633 547.039 175.609 546.57 175.609C545.258 175.609 544.016 175.855 542.844 176.348C541.695 176.816 540.688 177.496 539.82 178.387C538.977 179.277 538.309 180.355 537.816 181.621C537.324 182.863 537.078 184.27 537.078 185.84C537.078 186.191 537.09 186.59 537.113 187.035C537.16 187.48 537.219 187.938 537.289 188.406C537.383 188.852 537.488 189.285 537.605 189.707C537.723 190.129 537.875 190.504 538.062 190.832L549.242 175.996Z" fill="white"/>
<line x1="408.026" y1="219" x2="564.026" y2="220" stroke="white" stroke-width="8"/>
<line x1="299.026" y1="70.0001" x2="455.026" y2="71.0001" stroke="white" stroke-width="8"/>
<defs>
<filter id="filter0_d" x="179.191" y="17.326" width="96.3149" height="78.8535" filterUnits="userSpaceOnUse" color-interpolation-filters="sRGB">
<feFlood flood-opacity="0" result="BackgroundImageFix"/>
<feColorMatrix in="SourceAlpha" type="matrix" values="0 0 0 0 0 0 0 0 0 0 0 0 0 0 0 0 0 0 127 0"/>
<feOffset dy="4"/>
<feGaussianBlur stdDeviation="2"/>
<feColorMatrix type="matrix" values="0 0 0 0 0 0 0 0 0 0 0 0 0 0 0 0 0 0 0.25 0"/>
<feBlend mode="normal" in2="BackgroundImageFix" result="effect1_dropShadow"/>
<feBlend mode="normal" in="SourceGraphic" in2="effect1_dropShadow" result="shape"/>
</filter>
<filter id="filter1_d" x="121.501" y="225.15" width="93.4703" height="86.3331" filterUnits="userSpaceOnUse" color-interpolation-filters="sRGB">
<feFlood flood-opacity="0" result="BackgroundImageFix"/>
<feColorMatrix in="SourceAlpha" type="matrix" values="0 0 0 0 0 0 0 0 0 0 0 0 0 0 0 0 0 0 127 0"/>
<feOffset dy="4"/>
<feGaussianBlur stdDeviation="2"/>
<feColorMatrix type="matrix" values="0 0 0 0 0 0 0 0 0 0 0 0 0 0 0 0 0 0 0.25 0"/>
<feBlend mode="normal" in2="BackgroundImageFix" result="effect1_dropShadow"/>
<feBlend mode="normal" in="SourceGraphic" in2="effect1_dropShadow" result="shape"/>
</filter>
<filter id="filter2_d" x="174" y="122.5" width="42" height="48.9" filterUnits="userSpaceOnUse" color-interpolation-filters="sRGB">
<feFlood flood-opacity="0" result="BackgroundImageFix"/>
<feColorMatrix in="SourceAlpha" type="matrix" values="0 0 0 0 0 0 0 0 0 0 0 0 0 0 0 0 0 0 127 0"/>
<feOffset dy="4"/>
<feGaussianBlur stdDeviation="2"/>
<feColorMatrix type="matrix" values="0 0 0 0 0 0 0 0 0 0 0 0 0 0 0 0 0 0 0.25 0"/>
<feBlend mode="normal" in2="BackgroundImageFix" result="effect1_dropShadow"/>
<feBlend mode="normal" in="SourceGraphic" in2="effect1_dropShadow" result="shape"/>
</filter>
<filter id="filter3_d" x="97.9" y="58" width="194.2" height="208" filterUnits="userSpaceOnUse" color-interpolation-filters="sRGB">
<feFlood flood-opacity="0" result="BackgroundImageFix"/>
<feColorMatrix in="SourceAlpha" type="matrix" values="0 0 0 0 0 0 0 0 0 0 0 0 0 0 0 0 0 0 127 0"/>
<feOffset dy="4"/>
<feGaussianBlur stdDeviation="2"/>
<feColorMatrix type="matrix" values="0 0 0 0 0 0 0 0 0 0 0 0 0 0 0 0 0 0 0.25 0"/>
<feBlend mode="normal" in2="BackgroundImageFix" result="effect1_dropShadow"/>
<feBlend mode="normal" in="SourceGraphic" in2="effect1_dropShadow" result="shape"/>
</filter>
<linearGradient id="paint0_linear" x1="195" y1="122.5" x2="195" y2="163.4" gradientUnits="userSpaceOnUse">
<stop stop-color="#F7F7F7"/>
<stop offset="1" stop-color="white"/>
</linearGradient>
<linearGradient id="paint1_linear" x1="195" y1="58" x2="195" y2="258" gradientUnits="userSpaceOnUse">
<stop stop-color="#F7F7F7"/>
<stop offset="1" stop-color="white"/>
</linearGradient>
</defs>
</svg>
