<svg width="250" height="250" viewBox="0 0 250 250" fill="none" xmlns="http://www.w3.org/2000/svg">
<path d="M108 135.4H125H142L125 94.5L108 135.4Z" fill="url(#paint0_linear)"/>
<path d="M125 30L31.9 63.2L46.1 186.3L125 230L203.9 186.3L218.1 63.2L125 30ZM183.1 182.6H161.4L149.7 153.4H125H100.3L88.6 182.6H66.9L125 52.1L183.1 182.6Z" fill="url(#paint1_linear)"/>
<rect x="70" y="171" width="25" height="4" fill="#940A14"/>
<rect x="156" y="171" width="25" height="4" fill="#940A14"/>
<rect x="76" y="157" width="24" height="4" fill="#850B18"/>
<rect x="151" y="157" width="24" height="4" fill="#850B18"/>
<defs>
<linearGradient id="paint0_linear" x1="125" y1="94.5" x2="125" y2="135.4" gradientUnits="userSpaceOnUse">
<stop stop-color="#021035"/>
<stop offset="1" stop-color="#CC0707"/>
</linearGradient>
<linearGradient id="paint1_linear" x1="125" y1="30" x2="125" y2="230" gradientUnits="userSpaceOnUse">
<stop stop-color="#021035"/>
<stop offset="1" stop-color="#CC0707"/>
</linearGradient>
</defs>
</svg>
