<svg width="671" height="297" viewBox="0 0 671 297" fill="none" xmlns="http://www.w3.org/2000/svg">
<rect y="11" width="671" height="270" fill="#D31216"/>
<g filter="url(#filter0_d)">
<path d="M263.475 15.1785L199.254 73.1795L183.191 47.4744L263.475 15.1785Z" fill="#F5F1F1"/>
</g>
<g filter="url(#filter1_d)">
<path d="M135.202 276.839L191.569 210.15L210.971 233.437L135.202 276.839Z" fill="white"/>
</g>
<g filter="url(#filter2_d)">
<path d="M178 148.4H195H212L195 107.5L178 148.4Z" fill="url(#paint0_linear)"/>
</g>
<g filter="url(#filter3_d)">
<path d="M195 43L101.9 76.2L116.1 199.3L195 243L273.9 199.3L288.1 76.2L195 43ZM253.1 195.6H231.4L219.7 166.4H195H170.3L158.6 195.6H136.9L195 65.1L253.1 195.6Z" fill="url(#paint1_linear)"/>
</g>
<path d="M312.254 120H302.656V82.3477H304.977L308.141 86.0039C309.688 84.5977 311.434 83.5195 313.379 82.7695C315.348 81.9961 317.398 81.6094 319.531 81.6094C321.828 81.6094 323.996 82.0547 326.035 82.9453C328.074 83.8125 329.855 85.0195 331.379 86.5664C332.902 88.0898 334.098 89.8828 334.965 91.9453C335.855 93.9844 336.301 96.1641 336.301 98.4844V120H326.703V98.4844C326.703 97.5 326.516 96.5742 326.141 95.707C325.766 94.8164 325.25 94.043 324.594 93.3867C323.938 92.7305 323.176 92.2148 322.309 91.8398C321.441 91.4648 320.516 91.2773 319.531 91.2773C318.523 91.2773 317.574 91.4648 316.684 91.8398C315.793 92.2148 315.02 92.7305 314.363 93.3867C313.707 94.043 313.191 94.8164 312.816 95.707C312.441 96.5742 312.254 97.5 312.254 98.4844V120ZM369.945 100.84C369.945 99.5273 369.688 98.2617 369.172 97.043C368.68 95.8008 368 94.7109 367.133 93.7734C366.266 92.8125 365.246 92.0508 364.074 91.4883C362.926 90.9023 361.695 90.6094 360.383 90.6094C359.07 90.6094 357.828 90.832 356.656 91.2773C355.508 91.7227 354.5 92.3789 353.633 93.2461C352.789 94.1133 352.121 95.1914 351.629 96.4805C351.137 97.7461 350.891 99.1992 350.891 100.84C350.891 102.41 351.137 103.828 351.629 105.094C352.121 106.336 352.789 107.402 353.633 108.293C354.5 109.184 355.508 109.875 356.656 110.367C357.828 110.836 359.07 111.07 360.383 111.07C361.695 111.07 362.926 110.789 364.074 110.227C365.246 109.641 366.266 108.879 367.133 107.941C368 106.98 368.68 105.891 369.172 104.672C369.688 103.43 369.945 102.152 369.945 100.84ZM379.613 115.254C379.613 117.902 379.109 120.387 378.102 122.707C377.094 125.027 375.711 127.055 373.953 128.789C372.219 130.523 370.18 131.895 367.836 132.902C365.516 133.91 363.031 134.414 360.383 134.414L355.566 134.344V124.746L360.312 124.816C361.812 124.816 363.09 124.617 364.145 124.219C365.199 123.844 366.09 123.316 366.816 122.637C367.543 121.98 368.117 121.219 368.539 120.352C368.984 119.484 369.336 118.57 369.594 117.609C369.219 118.219 368.68 118.723 367.977 119.121C367.273 119.496 366.488 119.801 365.621 120.035C364.777 120.293 363.887 120.469 362.949 120.562C362.035 120.656 361.18 120.703 360.383 120.703C357.734 120.703 355.238 120.246 352.895 119.332C350.574 118.418 348.535 117.117 346.777 115.43C345.043 113.719 343.672 111.633 342.664 109.172C341.656 106.711 341.152 103.934 341.152 100.84C341.152 98.0039 341.656 95.3672 342.664 92.9297C343.672 90.4922 345.043 88.3828 346.777 86.6016C348.535 84.8203 350.574 83.4258 352.895 82.418C355.238 81.4102 357.734 80.9062 360.383 80.9062C361.602 80.9062 362.809 81.0586 364.004 81.3633C365.199 81.668 366.359 82.0898 367.484 82.6289C368.609 83.168 369.676 83.8008 370.684 84.5273C371.715 85.2539 372.676 86.0391 373.566 86.8828L377.293 82.418H379.613V115.254ZM414.629 115.605C413.855 116.309 413.023 116.977 412.133 117.609C411.266 118.219 410.352 118.758 409.391 119.227C408.43 119.672 407.434 120.023 406.402 120.281C405.395 120.562 404.363 120.703 403.309 120.703C400.988 120.703 398.809 120.293 396.77 119.473C394.73 118.652 392.938 117.492 391.391 115.992C389.867 114.469 388.66 112.629 387.77 110.473C386.902 108.293 386.469 105.855 386.469 103.16V82.3477H396.031V103.16C396.031 104.426 396.219 105.562 396.594 106.57C396.992 107.555 397.52 108.387 398.176 109.066C398.832 109.746 399.594 110.262 400.461 110.613C401.352 110.965 402.301 111.141 403.309 111.141C404.293 111.141 405.219 110.918 406.086 110.473C406.977 110.004 407.75 109.395 408.406 108.645C409.062 107.895 409.578 107.051 409.953 106.113C410.328 105.152 410.516 104.168 410.516 103.16V82.3477H420.113V120H417.793L414.629 115.605ZM437.129 120H427.461V67.3711H437.129V120ZM480.934 120H478.613L474.887 114.832C473.973 115.652 473 116.426 471.969 117.152C470.961 117.855 469.895 118.477 468.77 119.016C467.645 119.531 466.484 119.941 465.289 120.246C464.117 120.551 462.922 120.703 461.703 120.703C459.055 120.703 456.559 120.258 454.215 119.367C451.895 118.477 449.855 117.188 448.098 115.5C446.363 113.789 444.992 111.703 443.984 109.242C442.977 106.781 442.473 103.98 442.473 100.84C442.473 97.9102 442.977 95.2266 443.984 92.7891C444.992 90.3281 446.363 88.2188 448.098 86.4609C449.855 84.7031 451.895 83.3438 454.215 82.3828C456.559 81.3984 459.055 80.9062 461.703 80.9062C462.922 80.9062 464.129 81.0586 465.324 81.3633C466.52 81.668 467.68 82.0898 468.805 82.6289C469.93 83.168 470.996 83.8008 472.004 84.5273C473.035 85.2539 473.996 86.0391 474.887 86.8828L478.613 82.418H480.934V120ZM471.266 100.84C471.266 99.5273 471.008 98.2617 470.492 97.043C470 95.8008 469.32 94.7109 468.453 93.7734C467.586 92.8125 466.566 92.0508 465.395 91.4883C464.246 90.9023 463.016 90.6094 461.703 90.6094C460.391 90.6094 459.148 90.832 457.977 91.2773C456.828 91.7227 455.82 92.3789 454.953 93.2461C454.109 94.1133 453.441 95.1914 452.949 96.4805C452.457 97.7461 452.211 99.1992 452.211 100.84C452.211 102.48 452.457 103.945 452.949 105.234C453.441 106.5 454.109 107.566 454.953 108.434C455.82 109.301 456.828 109.957 457.977 110.402C459.148 110.848 460.391 111.07 461.703 111.07C463.016 111.07 464.246 110.789 465.395 110.227C466.566 109.641 467.586 108.879 468.453 107.941C469.32 106.98 470 105.891 470.492 104.672C471.008 103.43 471.266 102.152 471.266 100.84ZM497.879 120H488.281V82.3477H490.602L493.766 86.8125C495.312 85.4062 497.07 84.3281 499.039 83.5781C501.008 82.8047 503.047 82.418 505.156 82.418H513.629V91.9805H505.156C504.148 91.9805 503.199 92.168 502.309 92.543C501.418 92.918 500.645 93.4336 499.988 94.0898C499.332 94.7461 498.816 95.5195 498.441 96.4102C498.066 97.3008 497.879 98.25 497.879 99.2578V120Z" fill="white"/>
<path d="M350.188 176.395C350.188 178.363 349.812 180.227 349.062 181.984C348.312 183.719 347.281 185.23 345.969 186.52C344.68 187.809 343.156 188.828 341.398 189.578C339.664 190.328 337.801 190.703 335.809 190.703C334.027 190.703 332.316 190.398 330.676 189.789C329.035 189.156 327.547 188.242 326.211 187.047C324.898 188.242 323.422 189.156 321.781 189.789C320.164 190.398 318.453 190.703 316.648 190.703C314.656 190.703 312.793 190.328 311.059 189.578C309.324 188.828 307.801 187.809 306.488 186.52C305.199 185.23 304.18 183.719 303.43 181.984C302.68 180.227 302.305 178.363 302.305 176.395V152.418H311.902V176.395C311.902 177.051 312.02 177.672 312.254 178.258C312.512 178.82 312.852 179.324 313.273 179.77C313.719 180.191 314.223 180.531 314.785 180.789C315.371 181.023 315.992 181.141 316.648 181.141C317.305 181.141 317.926 181.023 318.512 180.789C319.098 180.531 319.613 180.191 320.059 179.77C320.504 179.324 320.844 178.82 321.078 178.258C321.336 177.672 321.465 177.051 321.465 176.395V152.418H331.027V176.395C331.027 177.051 331.156 177.672 331.414 178.258C331.672 178.82 332.012 179.324 332.434 179.77C332.879 180.191 333.383 180.531 333.945 180.789C334.531 181.023 335.152 181.141 335.809 181.141C336.465 181.141 337.086 181.023 337.672 180.789C338.258 180.531 338.762 180.191 339.184 179.77C339.629 179.324 339.98 178.82 340.238 178.258C340.496 177.672 340.625 177.051 340.625 176.395V152.418H350.188V176.395ZM372.125 180.789C372.5 180.906 372.875 180.988 373.25 181.035C373.625 181.059 374 181.07 374.375 181.07C375.312 181.07 376.215 180.941 377.082 180.684C377.949 180.426 378.758 180.062 379.508 179.594C380.281 179.102 380.961 178.516 381.547 177.836C382.156 177.133 382.648 176.359 383.023 175.516L390.055 182.582C389.164 183.848 388.133 184.984 386.961 185.992C385.812 187 384.559 187.855 383.199 188.559C381.863 189.262 380.445 189.789 378.945 190.141C377.469 190.516 375.945 190.703 374.375 190.703C371.727 190.703 369.23 190.211 366.887 189.227C364.566 188.242 362.527 186.871 360.77 185.113C359.035 183.355 357.664 181.27 356.656 178.855C355.648 176.418 355.145 173.746 355.145 170.84C355.145 167.863 355.648 165.145 356.656 162.684C357.664 160.223 359.035 158.125 360.77 156.391C362.527 154.656 364.566 153.309 366.887 152.348C369.23 151.387 371.727 150.906 374.375 150.906C375.945 150.906 377.48 151.094 378.98 151.469C380.48 151.844 381.898 152.383 383.234 153.086C384.594 153.789 385.859 154.656 387.031 155.688C388.203 156.695 389.234 157.832 390.125 159.098L372.125 180.789ZM377.047 160.996C376.602 160.832 376.156 160.727 375.711 160.68C375.289 160.633 374.844 160.609 374.375 160.609C373.062 160.609 371.82 160.855 370.648 161.348C369.5 161.816 368.492 162.496 367.625 163.387C366.781 164.277 366.113 165.355 365.621 166.621C365.129 167.863 364.883 169.27 364.883 170.84C364.883 171.191 364.895 171.59 364.918 172.035C364.965 172.48 365.023 172.938 365.094 173.406C365.188 173.852 365.293 174.285 365.41 174.707C365.527 175.129 365.68 175.504 365.867 175.832L377.047 160.996ZM415.648 190H393.711V180.438H415.648C416.305 180.438 416.867 180.203 417.336 179.734C417.805 179.266 418.039 178.703 418.039 178.047C418.039 177.367 417.805 176.922 417.336 176.711C416.867 176.5 416.305 176.395 415.648 176.395H405.664C404 176.395 402.441 176.078 400.988 175.445C399.535 174.812 398.27 173.957 397.191 172.879C396.113 171.777 395.258 170.5 394.625 169.047C394.016 167.594 393.711 166.035 393.711 164.371C393.711 162.707 394.016 161.148 394.625 159.695C395.258 158.242 396.113 156.977 397.191 155.898C398.27 154.82 399.535 153.977 400.988 153.367C402.441 152.734 404 152.418 405.664 152.418H425.105V161.98H405.664C405.008 161.98 404.445 162.215 403.977 162.684C403.508 163.152 403.273 163.715 403.273 164.371C403.273 165.051 403.508 165.637 403.977 166.129C404.445 166.598 405.008 166.832 405.664 166.832H415.648C417.289 166.832 418.836 167.113 420.289 167.676C421.742 168.215 423.008 168.977 424.086 169.961C425.164 170.945 426.02 172.129 426.652 173.512C427.285 174.895 427.602 176.406 427.602 178.047C427.602 179.711 427.285 181.27 426.652 182.723C426.02 184.152 425.164 185.418 424.086 186.52C423.008 187.598 421.742 188.453 420.289 189.086C418.836 189.695 417.289 190 415.648 190ZM469.121 170.84C469.121 173.652 468.617 176.277 467.609 178.715C466.602 181.129 465.23 183.227 463.496 185.008C461.762 186.766 459.723 188.16 457.379 189.191C455.059 190.199 452.562 190.703 449.891 190.703C447.242 190.703 444.746 190.199 442.402 189.191C440.082 188.16 438.043 186.766 436.285 185.008C434.551 183.227 433.18 181.129 432.172 178.715C431.164 176.277 430.66 173.652 430.66 170.84C430.66 167.98 431.164 165.332 432.172 162.895C433.18 160.457 434.551 158.359 436.285 156.602C438.043 154.82 440.082 153.426 442.402 152.418C444.746 151.41 447.242 150.906 449.891 150.906C452.562 150.906 455.059 151.387 457.379 152.348C459.723 153.285 461.762 154.633 463.496 156.391C465.23 158.125 466.602 160.223 467.609 162.684C468.617 165.121 469.121 167.84 469.121 170.84ZM459.453 170.84C459.453 169.293 459.195 167.898 458.68 166.656C458.188 165.391 457.508 164.312 456.641 163.422C455.773 162.508 454.754 161.816 453.582 161.348C452.434 160.855 451.203 160.609 449.891 160.609C448.578 160.609 447.336 160.855 446.164 161.348C445.016 161.816 444.008 162.508 443.141 163.422C442.297 164.312 441.629 165.391 441.137 166.656C440.645 167.898 440.398 169.293 440.398 170.84C440.398 172.293 440.645 173.641 441.137 174.883C441.629 176.125 442.297 177.203 443.141 178.117C444.008 179.031 445.016 179.758 446.164 180.297C447.336 180.812 448.578 181.07 449.891 181.07C451.203 181.07 452.434 180.824 453.582 180.332C454.754 179.84 455.773 179.148 456.641 178.258C457.508 177.367 458.188 176.289 458.68 175.023C459.195 173.758 459.453 172.363 459.453 170.84ZM522.312 190H512.75V166.094C512.75 165.438 512.621 164.816 512.363 164.23C512.129 163.645 511.789 163.129 511.344 162.684C510.898 162.238 510.383 161.898 509.797 161.664C509.211 161.406 508.59 161.277 507.934 161.277C507.277 161.277 506.656 161.406 506.07 161.664C505.508 161.898 505.004 162.238 504.559 162.684C504.137 163.129 503.797 163.645 503.539 164.23C503.305 164.816 503.188 165.438 503.188 166.094V190H493.59V166.094C493.59 165.438 493.461 164.816 493.203 164.23C492.969 163.645 492.629 163.129 492.184 162.684C491.738 162.238 491.223 161.898 490.637 161.664C490.051 161.406 489.43 161.277 488.773 161.277C488.117 161.277 487.496 161.406 486.91 161.664C486.348 161.898 485.844 162.238 485.398 162.684C484.977 163.129 484.637 163.645 484.379 164.23C484.145 164.816 484.027 165.438 484.027 166.094V190H474.43V152.348H476.75L479.352 155.23C480.688 154.105 482.152 153.238 483.746 152.629C485.363 151.996 487.039 151.68 488.773 151.68C490.531 151.68 492.242 152.008 493.906 152.664C495.594 153.32 497.07 154.457 498.336 156.074C498.922 155.277 499.59 154.598 500.34 154.035C501.09 153.473 501.875 153.016 502.695 152.664C503.539 152.312 504.406 152.066 505.297 151.926C506.188 151.762 507.066 151.68 507.934 151.68C509.926 151.68 511.789 152.055 513.523 152.805C515.281 153.555 516.805 154.586 518.094 155.898C519.406 157.188 520.438 158.711 521.188 160.469C521.938 162.227 522.312 164.102 522.312 166.094V190ZM544.32 180.789C544.695 180.906 545.07 180.988 545.445 181.035C545.82 181.059 546.195 181.07 546.57 181.07C547.508 181.07 548.41 180.941 549.277 180.684C550.145 180.426 550.953 180.062 551.703 179.594C552.477 179.102 553.156 178.516 553.742 177.836C554.352 177.133 554.844 176.359 555.219 175.516L562.25 182.582C561.359 183.848 560.328 184.984 559.156 185.992C558.008 187 556.754 187.855 555.395 188.559C554.059 189.262 552.641 189.789 551.141 190.141C549.664 190.516 548.141 190.703 546.57 190.703C543.922 190.703 541.426 190.211 539.082 189.227C536.762 188.242 534.723 186.871 532.965 185.113C531.23 183.355 529.859 181.27 528.852 178.855C527.844 176.418 527.34 173.746 527.34 170.84C527.34 167.863 527.844 165.145 528.852 162.684C529.859 160.223 531.23 158.125 532.965 156.391C534.723 154.656 536.762 153.309 539.082 152.348C541.426 151.387 543.922 150.906 546.57 150.906C548.141 150.906 549.676 151.094 551.176 151.469C552.676 151.844 554.094 152.383 555.43 153.086C556.789 153.789 558.055 154.656 559.227 155.688C560.398 156.695 561.43 157.832 562.32 159.098L544.32 180.789ZM549.242 160.996C548.797 160.832 548.352 160.727 547.906 160.68C547.484 160.633 547.039 160.609 546.57 160.609C545.258 160.609 544.016 160.855 542.844 161.348C541.695 161.816 540.688 162.496 539.82 163.387C538.977 164.277 538.309 165.355 537.816 166.621C537.324 167.863 537.078 169.27 537.078 170.84C537.078 171.191 537.09 171.59 537.113 172.035C537.16 172.48 537.219 172.938 537.289 173.406C537.383 173.852 537.488 174.285 537.605 174.707C537.723 175.129 537.875 175.504 538.062 175.832L549.242 160.996Z" fill="white"/>
<line x1="408.026" y1="204" x2="564.026" y2="205" stroke="white" stroke-width="8"/>
<line x1="299.026" y1="55.0001" x2="455.026" y2="56.0001" stroke="white" stroke-width="8"/>
<defs>
<filter id="filter0_d" x="179.191" y="2.326" width="96.3149" height="78.8535" filterUnits="userSpaceOnUse" color-interpolation-filters="sRGB">
<feFlood flood-opacity="0" result="BackgroundImageFix"/>
<feColorMatrix in="SourceAlpha" type="matrix" values="0 0 0 0 0 0 0 0 0 0 0 0 0 0 0 0 0 0 127 0"/>
<feOffset dy="4"/>
<feGaussianBlur stdDeviation="2"/>
<feColorMatrix type="matrix" values="0 0 0 0 0 0 0 0 0 0 0 0 0 0 0 0 0 0 0.25 0"/>
<feBlend mode="normal" in2="BackgroundImageFix" result="effect1_dropShadow"/>
<feBlend mode="normal" in="SourceGraphic" in2="effect1_dropShadow" result="shape"/>
</filter>
<filter id="filter1_d" x="121.501" y="210.15" width="93.4703" height="86.3331" filterUnits="userSpaceOnUse" color-interpolation-filters="sRGB">
<feFlood flood-opacity="0" result="BackgroundImageFix"/>
<feColorMatrix in="SourceAlpha" type="matrix" values="0 0 0 0 0 0 0 0 0 0 0 0 0 0 0 0 0 0 127 0"/>
<feOffset dy="4"/>
<feGaussianBlur stdDeviation="2"/>
<feColorMatrix type="matrix" values="0 0 0 0 0 0 0 0 0 0 0 0 0 0 0 0 0 0 0.25 0"/>
<feBlend mode="normal" in2="BackgroundImageFix" result="effect1_dropShadow"/>
<feBlend mode="normal" in="SourceGraphic" in2="effect1_dropShadow" result="shape"/>
</filter>
<filter id="filter2_d" x="174" y="107.5" width="42" height="48.9" filterUnits="userSpaceOnUse" color-interpolation-filters="sRGB">
<feFlood flood-opacity="0" result="BackgroundImageFix"/>
<feColorMatrix in="SourceAlpha" type="matrix" values="0 0 0 0 0 0 0 0 0 0 0 0 0 0 0 0 0 0 127 0"/>
<feOffset dy="4"/>
<feGaussianBlur stdDeviation="2"/>
<feColorMatrix type="matrix" values="0 0 0 0 0 0 0 0 0 0 0 0 0 0 0 0 0 0 0.25 0"/>
<feBlend mode="normal" in2="BackgroundImageFix" result="effect1_dropShadow"/>
<feBlend mode="normal" in="SourceGraphic" in2="effect1_dropShadow" result="shape"/>
</filter>
<filter id="filter3_d" x="97.9" y="43" width="194.2" height="208" filterUnits="userSpaceOnUse" color-interpolation-filters="sRGB">
<feFlood flood-opacity="0" result="BackgroundImageFix"/>
<feColorMatrix in="SourceAlpha" type="matrix" values="0 0 0 0 0 0 0 0 0 0 0 0 0 0 0 0 0 0 127 0"/>
<feOffset dy="4"/>
<feGaussianBlur stdDeviation="2"/>
<feColorMatrix type="matrix" values="0 0 0 0 0 0 0 0 0 0 0 0 0 0 0 0 0 0 0.25 0"/>
<feBlend mode="normal" in2="BackgroundImageFix" result="effect1_dropShadow"/>
<feBlend mode="normal" in="SourceGraphic" in2="effect1_dropShadow" result="shape"/>
</filter>
<linearGradient id="paint0_linear" x1="195" y1="107.5" x2="195" y2="148.4" gradientUnits="userSpaceOnUse">
<stop stop-color="#F7F7F7"/>
<stop offset="1" stop-color="white"/>
</linearGradient>
<linearGradient id="paint1_linear" x1="195" y1="43" x2="195" y2="243" gradientUnits="userSpaceOnUse">
<stop stop-color="#F7F7F7"/>
<stop offset="1" stop-color="white"/>
</linearGradient>
</defs>
</svg>
