<svg width="671" height="281" viewBox="0 0 671 281" fill="none" xmlns="http://www.w3.org/2000/svg">
<rect width="671" height="281" fill="#D31216"/>
<g filter="url(#filter0_d)">
<path d="M247.921 36.267L194.838 84.2091L181.561 62.962L247.921 36.267Z" fill="#F5F1F1"/>
</g>
<g filter="url(#filter1_d)">
<path d="M141.894 252.549L188.486 197.425L204.523 216.674L141.894 252.549Z" fill="white"/>
</g>
<g filter="url(#filter2_d)">
<path d="M177.27 146.384H191.322H205.373L191.322 112.578L177.27 146.384Z" fill="url(#paint0_linear)"/>
</g>
<g filter="url(#filter3_d)">
<path d="M191.322 59.2635L114.368 86.7058L126.105 188.457L191.322 224.578L256.538 188.457L268.276 86.7058L191.322 59.2635ZM239.346 185.399H221.409L211.738 161.263H191.322H170.905L161.234 185.399H143.298L191.322 77.5308L239.346 185.399Z" fill="url(#paint1_linear)"/>
</g>
<path d="M295.781 124H287.25V90.5312H289.312L292.125 93.7812C293.5 92.5312 295.052 91.5729 296.781 90.9062C298.531 90.2188 300.354 89.875 302.25 89.875C304.292 89.875 306.219 90.2708 308.031 91.0625C309.844 91.8333 311.427 92.9062 312.781 94.2812C314.135 95.6354 315.198 97.2292 315.969 99.0625C316.76 100.875 317.156 102.812 317.156 104.875V124H308.625V104.875C308.625 104 308.458 103.177 308.125 102.406C307.792 101.615 307.333 100.927 306.75 100.344C306.167 99.7604 305.49 99.3021 304.719 98.9688C303.948 98.6354 303.125 98.4688 302.25 98.4688C301.354 98.4688 300.51 98.6354 299.719 98.9688C298.927 99.3021 298.24 99.7604 297.656 100.344C297.073 100.927 296.615 101.615 296.281 102.406C295.948 103.177 295.781 104 295.781 104.875V124ZM347.062 106.969C347.062 105.802 346.833 104.677 346.375 103.594C345.938 102.49 345.333 101.521 344.562 100.688C343.792 99.8333 342.885 99.1562 341.844 98.6562C340.823 98.1354 339.729 97.875 338.562 97.875C337.396 97.875 336.292 98.0729 335.25 98.4688C334.229 98.8646 333.333 99.4479 332.562 100.219C331.812 100.99 331.219 101.948 330.781 103.094C330.344 104.219 330.125 105.51 330.125 106.969C330.125 108.365 330.344 109.625 330.781 110.75C331.219 111.854 331.812 112.802 332.562 113.594C333.333 114.385 334.229 115 335.25 115.438C336.292 115.854 337.396 116.062 338.562 116.062C339.729 116.062 340.823 115.812 341.844 115.312C342.885 114.792 343.792 114.115 344.562 113.281C345.333 112.427 345.938 111.458 346.375 110.375C346.833 109.271 347.062 108.135 347.062 106.969ZM355.656 119.781C355.656 122.135 355.208 124.344 354.312 126.406C353.417 128.469 352.188 130.271 350.625 131.812C349.083 133.354 347.271 134.573 345.188 135.469C343.125 136.365 340.917 136.812 338.562 136.812L334.281 136.75V128.219L338.5 128.281C339.833 128.281 340.969 128.104 341.906 127.75C342.844 127.417 343.635 126.948 344.281 126.344C344.927 125.76 345.438 125.083 345.812 124.312C346.208 123.542 346.521 122.729 346.75 121.875C346.417 122.417 345.938 122.865 345.312 123.219C344.688 123.552 343.99 123.823 343.219 124.031C342.469 124.26 341.677 124.417 340.844 124.5C340.031 124.583 339.271 124.625 338.562 124.625C336.208 124.625 333.99 124.219 331.906 123.406C329.844 122.594 328.031 121.438 326.469 119.938C324.927 118.417 323.708 116.562 322.812 114.375C321.917 112.188 321.469 109.719 321.469 106.969C321.469 104.448 321.917 102.104 322.812 99.9375C323.708 97.7708 324.927 95.8958 326.469 94.3125C328.031 92.7292 329.844 91.4896 331.906 90.5938C333.99 89.6979 336.208 89.25 338.562 89.25C339.646 89.25 340.719 89.3854 341.781 89.6562C342.844 89.9271 343.875 90.3021 344.875 90.7812C345.875 91.2604 346.823 91.8229 347.719 92.4688C348.635 93.1146 349.49 93.8125 350.281 94.5625L353.594 90.5938H355.656V119.781ZM386.781 120.094C386.094 120.719 385.354 121.312 384.562 121.875C383.792 122.417 382.979 122.896 382.125 123.312C381.271 123.708 380.385 124.021 379.469 124.25C378.573 124.5 377.656 124.625 376.719 124.625C374.656 124.625 372.719 124.26 370.906 123.531C369.094 122.802 367.5 121.771 366.125 120.438C364.771 119.083 363.698 117.448 362.906 115.531C362.135 113.594 361.75 111.427 361.75 109.031V90.5312H370.25V109.031C370.25 110.156 370.417 111.167 370.75 112.062C371.104 112.938 371.573 113.677 372.156 114.281C372.74 114.885 373.417 115.344 374.188 115.656C374.979 115.969 375.823 116.125 376.719 116.125C377.594 116.125 378.417 115.927 379.188 115.531C379.979 115.115 380.667 114.573 381.25 113.906C381.833 113.24 382.292 112.49 382.625 111.656C382.958 110.802 383.125 109.927 383.125 109.031V90.5312H391.656V124H389.594L386.781 120.094ZM406.781 124H398.188V77.2188H406.781V124ZM445.719 124H443.656L440.344 119.406C439.531 120.135 438.667 120.823 437.75 121.469C436.854 122.094 435.906 122.646 434.906 123.125C433.906 123.583 432.875 123.948 431.812 124.219C430.771 124.49 429.708 124.625 428.625 124.625C426.271 124.625 424.052 124.229 421.969 123.438C419.906 122.646 418.094 121.5 416.531 120C414.99 118.479 413.771 116.625 412.875 114.438C411.979 112.25 411.531 109.76 411.531 106.969C411.531 104.365 411.979 101.979 412.875 99.8125C413.771 97.625 414.99 95.75 416.531 94.1875C418.094 92.625 419.906 91.4167 421.969 90.5625C424.052 89.6875 426.271 89.25 428.625 89.25C429.708 89.25 430.781 89.3854 431.844 89.6562C432.906 89.9271 433.938 90.3021 434.938 90.7812C435.938 91.2604 436.885 91.8229 437.781 92.4688C438.698 93.1146 439.552 93.8125 440.344 94.5625L443.656 90.5938H445.719V124ZM437.125 106.969C437.125 105.802 436.896 104.677 436.438 103.594C436 102.49 435.396 101.521 434.625 100.688C433.854 99.8333 432.948 99.1562 431.906 98.6562C430.885 98.1354 429.792 97.875 428.625 97.875C427.458 97.875 426.354 98.0729 425.312 98.4688C424.292 98.8646 423.396 99.4479 422.625 100.219C421.875 100.99 421.281 101.948 420.844 103.094C420.406 104.219 420.188 105.51 420.188 106.969C420.188 108.427 420.406 109.729 420.844 110.875C421.281 112 421.875 112.948 422.625 113.719C423.396 114.49 424.292 115.073 425.312 115.469C426.354 115.865 427.458 116.062 428.625 116.062C429.792 116.062 430.885 115.812 431.906 115.312C432.948 114.792 433.854 114.115 434.625 113.281C435.396 112.427 436 111.458 436.438 110.375C436.896 109.271 437.125 108.135 437.125 106.969ZM460.781 124H452.25V90.5312H454.312L457.125 94.5C458.5 93.25 460.062 92.2917 461.812 91.625C463.562 90.9375 465.375 90.5938 467.25 90.5938H474.781V99.0938H467.25C466.354 99.0938 465.51 99.2604 464.719 99.5938C463.927 99.9271 463.24 100.385 462.656 100.969C462.073 101.552 461.615 102.24 461.281 103.031C460.948 103.823 460.781 104.667 460.781 105.562V124Z" fill="white"/>
<path d="M329.5 174.906C329.5 176.656 329.167 178.312 328.5 179.875C327.833 181.417 326.917 182.76 325.75 183.906C324.604 185.052 323.25 185.958 321.688 186.625C320.146 187.292 318.49 187.625 316.719 187.625C315.135 187.625 313.615 187.354 312.156 186.812C310.698 186.25 309.375 185.438 308.188 184.375C307.021 185.438 305.708 186.25 304.25 186.812C302.812 187.354 301.292 187.625 299.688 187.625C297.917 187.625 296.26 187.292 294.719 186.625C293.177 185.958 291.823 185.052 290.656 183.906C289.51 182.76 288.604 181.417 287.938 179.875C287.271 178.312 286.938 176.656 286.938 174.906V153.594H295.469V174.906C295.469 175.49 295.573 176.042 295.781 176.562C296.01 177.062 296.312 177.51 296.688 177.906C297.083 178.281 297.531 178.583 298.031 178.812C298.552 179.021 299.104 179.125 299.688 179.125C300.271 179.125 300.823 179.021 301.344 178.812C301.865 178.583 302.323 178.281 302.719 177.906C303.115 177.51 303.417 177.062 303.625 176.562C303.854 176.042 303.969 175.49 303.969 174.906V153.594H312.469V174.906C312.469 175.49 312.583 176.042 312.812 176.562C313.042 177.062 313.344 177.51 313.719 177.906C314.115 178.281 314.562 178.583 315.062 178.812C315.583 179.021 316.135 179.125 316.719 179.125C317.302 179.125 317.854 179.021 318.375 178.812C318.896 178.583 319.344 178.281 319.719 177.906C320.115 177.51 320.427 177.062 320.656 176.562C320.885 176.042 321 175.49 321 174.906V153.594H329.5V174.906ZM349 178.812C349.333 178.917 349.667 178.99 350 179.031C350.333 179.052 350.667 179.062 351 179.062C351.833 179.062 352.635 178.948 353.406 178.719C354.177 178.49 354.896 178.167 355.562 177.75C356.25 177.312 356.854 176.792 357.375 176.188C357.917 175.562 358.354 174.875 358.688 174.125L364.938 180.406C364.146 181.531 363.229 182.542 362.188 183.438C361.167 184.333 360.052 185.094 358.844 185.719C357.656 186.344 356.396 186.812 355.062 187.125C353.75 187.458 352.396 187.625 351 187.625C348.646 187.625 346.427 187.188 344.344 186.312C342.281 185.438 340.469 184.219 338.906 182.656C337.365 181.094 336.146 179.24 335.25 177.094C334.354 174.927 333.906 172.552 333.906 169.969C333.906 167.323 334.354 164.906 335.25 162.719C336.146 160.531 337.365 158.667 338.906 157.125C340.469 155.583 342.281 154.385 344.344 153.531C346.427 152.677 348.646 152.25 351 152.25C352.396 152.25 353.76 152.417 355.094 152.75C356.427 153.083 357.688 153.562 358.875 154.188C360.083 154.812 361.208 155.583 362.25 156.5C363.292 157.396 364.208 158.406 365 159.531L349 178.812ZM353.375 161.219C352.979 161.073 352.583 160.979 352.188 160.938C351.812 160.896 351.417 160.875 351 160.875C349.833 160.875 348.729 161.094 347.688 161.531C346.667 161.948 345.771 162.552 345 163.344C344.25 164.135 343.656 165.094 343.219 166.219C342.781 167.323 342.562 168.573 342.562 169.969C342.562 170.281 342.573 170.635 342.594 171.031C342.635 171.427 342.688 171.833 342.75 172.25C342.833 172.646 342.927 173.031 343.031 173.406C343.135 173.781 343.271 174.115 343.438 174.406L353.375 161.219ZM387.688 187H368.188V178.5H387.688C388.271 178.5 388.771 178.292 389.188 177.875C389.604 177.458 389.812 176.958 389.812 176.375C389.812 175.771 389.604 175.375 389.188 175.188C388.771 175 388.271 174.906 387.688 174.906H378.812C377.333 174.906 375.948 174.625 374.656 174.062C373.365 173.5 372.24 172.74 371.281 171.781C370.323 170.802 369.562 169.667 369 168.375C368.458 167.083 368.188 165.698 368.188 164.219C368.188 162.74 368.458 161.354 369 160.062C369.562 158.771 370.323 157.646 371.281 156.688C372.24 155.729 373.365 154.979 374.656 154.438C375.948 153.875 377.333 153.594 378.812 153.594H396.094V162.094H378.812C378.229 162.094 377.729 162.302 377.312 162.719C376.896 163.135 376.688 163.635 376.688 164.219C376.688 164.823 376.896 165.344 377.312 165.781C377.729 166.198 378.229 166.406 378.812 166.406H387.688C389.146 166.406 390.521 166.656 391.812 167.156C393.104 167.635 394.229 168.312 395.188 169.188C396.146 170.062 396.906 171.115 397.469 172.344C398.031 173.573 398.312 174.917 398.312 176.375C398.312 177.854 398.031 179.24 397.469 180.531C396.906 181.802 396.146 182.927 395.188 183.906C394.229 184.865 393.104 185.625 391.812 186.188C390.521 186.729 389.146 187 387.688 187ZM435.219 169.969C435.219 172.469 434.771 174.802 433.875 176.969C432.979 179.115 431.76 180.979 430.219 182.562C428.677 184.125 426.865 185.365 424.781 186.281C422.719 187.177 420.5 187.625 418.125 187.625C415.771 187.625 413.552 187.177 411.469 186.281C409.406 185.365 407.594 184.125 406.031 182.562C404.49 180.979 403.271 179.115 402.375 176.969C401.479 174.802 401.031 172.469 401.031 169.969C401.031 167.427 401.479 165.073 402.375 162.906C403.271 160.74 404.49 158.875 406.031 157.312C407.594 155.729 409.406 154.49 411.469 153.594C413.552 152.698 415.771 152.25 418.125 152.25C420.5 152.25 422.719 152.677 424.781 153.531C426.865 154.365 428.677 155.562 430.219 157.125C431.76 158.667 432.979 160.531 433.875 162.719C434.771 164.885 435.219 167.302 435.219 169.969ZM426.625 169.969C426.625 168.594 426.396 167.354 425.938 166.25C425.5 165.125 424.896 164.167 424.125 163.375C423.354 162.562 422.448 161.948 421.406 161.531C420.385 161.094 419.292 160.875 418.125 160.875C416.958 160.875 415.854 161.094 414.812 161.531C413.792 161.948 412.896 162.562 412.125 163.375C411.375 164.167 410.781 165.125 410.344 166.25C409.906 167.354 409.688 168.594 409.688 169.969C409.688 171.26 409.906 172.458 410.344 173.562C410.781 174.667 411.375 175.625 412.125 176.438C412.896 177.25 413.792 177.896 414.812 178.375C415.854 178.833 416.958 179.062 418.125 179.062C419.292 179.062 420.385 178.844 421.406 178.406C422.448 177.969 423.354 177.354 424.125 176.562C424.896 175.771 425.5 174.812 425.938 173.688C426.396 172.562 426.625 171.323 426.625 169.969ZM482.5 187H474V165.75C474 165.167 473.885 164.615 473.656 164.094C473.448 163.573 473.146 163.115 472.75 162.719C472.354 162.323 471.896 162.021 471.375 161.812C470.854 161.583 470.302 161.469 469.719 161.469C469.135 161.469 468.583 161.583 468.062 161.812C467.562 162.021 467.115 162.323 466.719 162.719C466.344 163.115 466.042 163.573 465.812 164.094C465.604 164.615 465.5 165.167 465.5 165.75V187H456.969V165.75C456.969 165.167 456.854 164.615 456.625 164.094C456.417 163.573 456.115 163.115 455.719 162.719C455.323 162.323 454.865 162.021 454.344 161.812C453.823 161.583 453.271 161.469 452.688 161.469C452.104 161.469 451.552 161.583 451.031 161.812C450.531 162.021 450.083 162.323 449.688 162.719C449.312 163.115 449.01 163.573 448.781 164.094C448.573 164.615 448.469 165.167 448.469 165.75V187H439.938V153.531H442L444.312 156.094C445.5 155.094 446.802 154.323 448.219 153.781C449.656 153.219 451.146 152.938 452.688 152.938C454.25 152.938 455.771 153.229 457.25 153.812C458.75 154.396 460.062 155.406 461.188 156.844C461.708 156.135 462.302 155.531 462.969 155.031C463.635 154.531 464.333 154.125 465.062 153.812C465.812 153.5 466.583 153.281 467.375 153.156C468.167 153.01 468.948 152.938 469.719 152.938C471.49 152.938 473.146 153.271 474.688 153.938C476.25 154.604 477.604 155.521 478.75 156.688C479.917 157.833 480.833 159.188 481.5 160.75C482.167 162.312 482.5 163.979 482.5 165.75V187ZM502.062 178.812C502.396 178.917 502.729 178.99 503.062 179.031C503.396 179.052 503.729 179.062 504.062 179.062C504.896 179.062 505.698 178.948 506.469 178.719C507.24 178.49 507.958 178.167 508.625 177.75C509.312 177.312 509.917 176.792 510.438 176.188C510.979 175.562 511.417 174.875 511.75 174.125L518 180.406C517.208 181.531 516.292 182.542 515.25 183.438C514.229 184.333 513.115 185.094 511.906 185.719C510.719 186.344 509.458 186.812 508.125 187.125C506.812 187.458 505.458 187.625 504.062 187.625C501.708 187.625 499.49 187.188 497.406 186.312C495.344 185.438 493.531 184.219 491.969 182.656C490.427 181.094 489.208 179.24 488.312 177.094C487.417 174.927 486.969 172.552 486.969 169.969C486.969 167.323 487.417 164.906 488.312 162.719C489.208 160.531 490.427 158.667 491.969 157.125C493.531 155.583 495.344 154.385 497.406 153.531C499.49 152.677 501.708 152.25 504.062 152.25C505.458 152.25 506.823 152.417 508.156 152.75C509.49 153.083 510.75 153.562 511.938 154.188C513.146 154.812 514.271 155.583 515.312 156.5C516.354 157.396 517.271 158.406 518.062 159.531L502.062 178.812ZM506.438 161.219C506.042 161.073 505.646 160.979 505.25 160.938C504.875 160.896 504.479 160.875 504.062 160.875C502.896 160.875 501.792 161.094 500.75 161.531C499.729 161.948 498.833 162.552 498.062 163.344C497.312 164.135 496.719 165.094 496.281 166.219C495.844 167.323 495.625 168.573 495.625 169.969C495.625 170.281 495.635 170.635 495.656 171.031C495.698 171.427 495.75 171.833 495.812 172.25C495.896 172.646 495.99 173.031 496.094 173.406C496.198 173.781 496.333 174.115 496.5 174.406L506.438 161.219Z" fill="white"/>
<line x1="392.972" y1="205.5" x2="519.972" y2="204.5" stroke="white" stroke-width="7"/>
<line x1="283.983" y1="65.5121" x2="410.983" y2="65.5121" stroke="white" stroke-width="6"/>
<defs>
<filter id="filter0_d" x="177.561" y="25.6435" width="80.9988" height="66.5656" filterUnits="userSpaceOnUse" color-interpolation-filters="sRGB">
<feFlood flood-opacity="0" result="BackgroundImageFix"/>
<feColorMatrix in="SourceAlpha" type="matrix" values="0 0 0 0 0 0 0 0 0 0 0 0 0 0 0 0 0 0 127 0"/>
<feOffset dy="4"/>
<feGaussianBlur stdDeviation="2"/>
<feColorMatrix type="matrix" values="0 0 0 0 0 0 0 0 0 0 0 0 0 0 0 0 0 0 0.25 0"/>
<feBlend mode="normal" in2="BackgroundImageFix" result="effect1_dropShadow"/>
<feBlend mode="normal" in="SourceGraphic" in2="effect1_dropShadow" result="shape"/>
</filter>
<filter id="filter1_d" x="129.875" y="197.425" width="78.6475" height="72.7481" filterUnits="userSpaceOnUse" color-interpolation-filters="sRGB">
<feFlood flood-opacity="0" result="BackgroundImageFix"/>
<feColorMatrix in="SourceAlpha" type="matrix" values="0 0 0 0 0 0 0 0 0 0 0 0 0 0 0 0 0 0 127 0"/>
<feOffset dy="4"/>
<feGaussianBlur stdDeviation="2"/>
<feColorMatrix type="matrix" values="0 0 0 0 0 0 0 0 0 0 0 0 0 0 0 0 0 0 0.25 0"/>
<feBlend mode="normal" in2="BackgroundImageFix" result="effect1_dropShadow"/>
<feBlend mode="normal" in="SourceGraphic" in2="effect1_dropShadow" result="shape"/>
</filter>
<filter id="filter2_d" x="173.27" y="112.578" width="36.1035" height="41.8069" filterUnits="userSpaceOnUse" color-interpolation-filters="sRGB">
<feFlood flood-opacity="0" result="BackgroundImageFix"/>
<feColorMatrix in="SourceAlpha" type="matrix" values="0 0 0 0 0 0 0 0 0 0 0 0 0 0 0 0 0 0 127 0"/>
<feOffset dy="4"/>
<feGaussianBlur stdDeviation="2"/>
<feColorMatrix type="matrix" values="0 0 0 0 0 0 0 0 0 0 0 0 0 0 0 0 0 0 0.25 0"/>
<feBlend mode="normal" in2="BackgroundImageFix" result="effect1_dropShadow"/>
<feBlend mode="normal" in="SourceGraphic" in2="effect1_dropShadow" result="shape"/>
</filter>
<filter id="filter3_d" x="110.368" y="59.2635" width="161.908" height="173.315" filterUnits="userSpaceOnUse" color-interpolation-filters="sRGB">
<feFlood flood-opacity="0" result="BackgroundImageFix"/>
<feColorMatrix in="SourceAlpha" type="matrix" values="0 0 0 0 0 0 0 0 0 0 0 0 0 0 0 0 0 0 127 0"/>
<feOffset dy="4"/>
<feGaussianBlur stdDeviation="2"/>
<feColorMatrix type="matrix" values="0 0 0 0 0 0 0 0 0 0 0 0 0 0 0 0 0 0 0.25 0"/>
<feBlend mode="normal" in2="BackgroundImageFix" result="effect1_dropShadow"/>
<feBlend mode="normal" in="SourceGraphic" in2="effect1_dropShadow" result="shape"/>
</filter>
<linearGradient id="paint0_linear" x1="191.322" y1="112.578" x2="191.322" y2="146.384" gradientUnits="userSpaceOnUse">
<stop stop-color="#F7F7F7"/>
<stop offset="1" stop-color="white"/>
</linearGradient>
<linearGradient id="paint1_linear" x1="191.322" y1="59.2635" x2="191.322" y2="224.578" gradientUnits="userSpaceOnUse">
<stop stop-color="#F7F7F7"/>
<stop offset="1" stop-color="white"/>
</linearGradient>
</defs>
</svg>
